<?xml version="1.0" standalone="no"?>
<!DOCTYPE svg PUBLIC "-//W3C//DTD SVG 20010904//EN"
 "http://www.w3.org/TR/2001/REC-SVG-20010904/DTD/svg10.dtd">
<svg version="1.0" xmlns="http://www.w3.org/2000/svg"
 width="1100.000000pt" height="1100.000000pt" viewBox="0 0 1100.000000 1100.000000"
 preserveAspectRatio="xMidYMid meet">
<metadata>
Created by potrace 1.14, written by Peter Selinger 2001-2017
</metadata>
<g transform="translate(0.000000,1100.000000) scale(0.100000,-0.100000)"
fill="#000000" stroke="none">
<path d="M5195 9650 c-258 -21 -478 -58 -730 -122 -1173 -298 -2176 -1122
-2706 -2222 -650 -1350 -515 -2963 349 -4184 260 -369 623 -732 998 -1000 312
-222 718 -428 1090 -550 847 -280 1791 -277 2629 8 1997 680 3163 2722 2734
4788 -18 83 -35 152 -38 152 -3 0 -837 -841 -1854 -1869 -1232 -1247 -1867
-1883 -1907 -1910 -113 -75 -264 -117 -392 -107 -105 7 -159 22 -258 68 -84
40 -91 46 -421 377 -821 823 -1968 1990 -1998 2034 -87 127 -126 264 -118 417
13 275 183 502 446 594 76 26 99 30 201 30 161 0 273 -37 395 -130 28 -22 439
-432 914 -911 475 -480 867 -873 871 -873 5 0 746 746 1648 1658 902 911 1699
1715 1771 1786 l131 128 -19 32 c-92 149 -340 443 -528 626 -678 663 -1507
1057 -2453 1165 -161 19 -601 27 -755 15z"/>
</g>
</svg>
