<?xml version="1.0" standalone="no"?>
<!DOCTYPE svg PUBLIC "-//W3C//DTD SVG 20010904//EN"
 "http://www.w3.org/TR/2001/REC-SVG-20010904/DTD/svg10.dtd">
<svg version="1.0" xmlns="http://www.w3.org/2000/svg"
 width="1000.000000pt" height="1000.000000pt" viewBox="0 0 1000.000000 1000.000000"
 preserveAspectRatio="xMidYMid meet">
<metadata>
Created by potrace 1.14, written by Peter Selinger 2001-2017
</metadata>
<g transform="translate(0.000000,1000.000000) scale(0.100000,-0.100000)"
fill="#000000" stroke="none">
<path d="M1669 9989 c-477 -15 -711 -67 -942 -208 -127 -78 -202 -138 -308
-248 -227 -236 -352 -507 -385 -838 -3 -38 -8 -79 -10 -90 -2 -11 -9 -146 -15
-300 -15 -413 -7 -6729 9 -6885 20 -183 49 -344 83 -443 109 -326 378 -634
699 -801 168 -87 325 -127 620 -158 156 -16 6567 -24 6932 -9 378 17 562 46
742 117 297 119 576 377 730 674 87 168 127 325 158 620 16 155 24 6486 9
6885 -20 516 -65 726 -205 959 -79 131 -141 209 -253 317 -187 180 -389 293
-628 350 -130 30 -321 49 -620 59 -328 11 -6277 11 -6616 -1z m7015 -2364
c234 -50 436 -251 492 -493 24 -101 15 -275 -19 -370 -49 -140 -69 -164 -517
-617 -234 -236 -1053 -1064 -1820 -1840 -1952 -1975 -1798 -1823 -1900 -1873
-125 -61 -191 -75 -330 -70 -90 4 -130 11 -182 30 -120 45 -176 86 -344 253
-597 595 -2126 2149 -2153 2188 -213 311 -135 729 175 936 112 75 210 104 354
105 161 0 274 -37 395 -130 47 -37 486 -477 1389 -1393 l398 -405 122 125
c211 216 2319 2352 2846 2884 277 280 524 527 549 547 139 115 352 164 545
123z"/>
</g>
</svg>
